# xmcd CD database file
#
# Track frame offsets:
#	150
#	11731
#	22862
#	37794
#	49905
#	61614
#	72586
#	87835
#	97612
#	110055
#	121309
#	132146
#	146056
#	157229
#	168600
#	179875
#	192475
#	207399
#
# Disc length: 2944 seconds
#
# Revision: 2
# Processed by: cddbd v1.4PL0 Copyright (c) Steve Scherf et al.
# Submitted via: CDex 1.50beta9
#
DISCID=020b7e12
DTITLE=Various Artist - Captivated Country
DYEAR=1900
DGENRE=Country
TTITLE0=Listen To A Country Song
TTITLE1=The Wayward wind
TTITLE2=Raining in my heart
TTITLE3=High Noon
TTITLE4=You Can't Put The City In A Country Girl
TTITLE5=Touch Me
TTITLE6=Blanket On The Ground
TTITLE7=Sixteen Tons
TTITLE8=Mexicali Rose
TTITLE9=The Last Thing On My Mind
TTITLE10=Always Something There To Remind Me
TTITLE11=Doesn't Anybody Know My Name
TTITLE12=Don't Call Me
TTITLE13=King Of The Road
TTITLE14=Just Out Of Reach
TTITLE15=Hot Rod Lincoln
TTITLE16=A Fool and His Money
TTITLE17=Ruby, Don't Take Your love To Town
EXTD=
EXTT0=
EXTT1=
EXTT2=
EXTT3=
EXTT4=
EXTT5=
EXTT6=
EXTT7=
EXTT8=
EXTT9=
EXTT10=
EXTT11=
EXTT12=
EXTT13=
EXTT14=
EXTT15=
EXTT16=
EXTT17=
PLAYORDER=
